<svg xmlns="http://www.w3.org/2000/svg" xmlns:xlink="http://www.w3.org/1999/xlink" width="100%" height="100%" version="1.1" viewBox="0 0 512 512" xml:space="preserve" style="fill-rule:evenodd;clip-rule:evenodd;stroke-linejoin:round;stroke-miterlimit:2"><g><g transform="matrix(0.1,0,0,-0.1,0,512) matrix(10,0,0,-10,131.319,5068.68)"><rect width="427.736" height="427.736" x="29" y="37" style="fill:#004208"/></g><g transform="matrix(0.1,0,0,-0.1,0,512) matrix(8.79679,1.20321,1.20321,-8.79679,121.693,4474.61)"><rect width="427.736" height="427.736" x="29" y="37" style="fill:#2f7037"/></g><g><text x="70" y="280" transform="matrix(0.1,0,0,-0.1,0,512) matrix(7.69196,0,0,-7.69196,969.941,4474.67)" style="font-family:'Keifont';font-size:283.397px;fill:#fff">沼</text></g><g><text x="70" y="280" transform="matrix(0.1,0,0,-0.1,0,512) matrix(4.54826,0,0,-4.54826,952.658,2239.71)" style="font-family:'Keifont';font-size:283.397px;fill:#fff">LAB</text></g></g></svg>